<svg xmlns="http://www.w3.org/2000/svg" version="1.1" style="font-family:Lato, &#x27;Helvetica Neue&#x27;, Helvetica, Arial, &#x27;Liberation Sans&#x27;, sans-serif;font-size:18px;background-color:white;text-rendering:geometricPrecision;-webkit-font-smoothing:antialiased" width="850" height="600" viewBox="0 0 850 600"><defs><style>@import url(https://ourworldindata.org/fonts.css)</style></defs><defs><pattern id="noDataPattern" patternUnits="userSpaceOnUse" width="4" height="4" patternTransform="rotate(-45 2 2)"><path d="M -1,2 l 6,0" stroke="#ccc" stroke-width="0.7"></path></pattern></defs><rect class="background-fill" fill="white" width="850" height="600"></rect><g class="HeaderView"><g transform="translate(769, 16) scale(1)"><svg className="owidLogo" xmlns="http://www.w3.org/2000/svg" width="65" height="36" viewBox="0 0 65 36"  fill="none"><path fill="#002147" d="M0 0h64.8v36H0z"/><path fill="#CE261E" d="M0 33.3h64.8V36H0z"/><path fill="#fff" d="M13.796 10.575c0 .636-.106 1.226-.318 1.77a4.193 4.193 0 0 1-.894 1.404 4.084 4.084 0 0 1-1.386.93c-.54.22-1.138.33-1.794.33-.656 0-1.256-.11-1.8-.33a4.149 4.149 0 0 1-1.392-.93 4.193 4.193 0 0 1-.894-1.404A4.833 4.833 0 0 1 5 10.575c0-.636.106-1.224.318-1.764a4.18 4.18 0 0 1 .894-1.41 4.076 4.076 0 0 1 1.392-.924 4.684 4.684 0 0 1 1.8-.336c.656 0 1.254.112 1.794.336.54.224 1.002.534 1.386.93.384.392.682.86.894 1.404.212.54.318 1.128.318 1.764Zm-1.656 0c0-.476-.064-.902-.192-1.278a2.671 2.671 0 0 0-.54-.966 2.332 2.332 0 0 0-.864-.606 2.94 2.94 0 0 0-1.14-.21c-.424 0-.806.07-1.146.21-.34.14-.63.342-.87.606a2.742 2.742 0 0 0-.546.966 3.955 3.955 0 0 0-.192 1.278c0 .476.064.904.192 1.284.128.376.31.696.546.96.24.26.53.46.87.6.34.14.722.21 1.146.21.424 0 .804-.07 1.14-.21.34-.14.628-.34.864-.6.236-.264.416-.584.54-.96a4.01 4.01 0 0 0 .192-1.284ZM16.104 8.757v3.912c0 .376.086.668.258.876.176.204.438.306.786.306.256 0 .496-.056.72-.168a2.58 2.58 0 0 0 .636-.474V8.757h1.482v6.156h-.906c-.192 0-.318-.09-.378-.27l-.102-.492a4.65 4.65 0 0 1-.396.354 2.577 2.577 0 0 1-.438.27 2.35 2.35 0 0 1-.498.168 2.345 2.345 0 0 1-.57.066c-.336 0-.634-.056-.894-.168a1.821 1.821 0 0 1-.648-.486 2.157 2.157 0 0 1-.402-.738 3.233 3.233 0 0 1-.132-.948V8.757h1.482ZM21.328 14.913V8.757h.87c.152 0 .258.028.318.084.06.056.1.152.12.288l.09.744c.22-.38.478-.68.774-.9.296-.22.628-.33.996-.33.304 0 .556.07.756.21l-.192 1.11c-.012.072-.038.124-.078.156a.278.278 0 0 1-.162.042 1.01 1.01 0 0 1-.246-.042 1.646 1.646 0 0 0-.414-.042c-.308 0-.572.086-.792.258-.22.168-.406.416-.558.744v3.834h-1.482ZM27.347 6.237h1.356a.57.57 0 0 1 .348.102c.096.064.16.152.192.264l1.476 5.19c.036.128.068.268.096.42.032.148.062.306.09.474a5.968 5.968 0 0 1 .228-.894l1.704-5.19a.575.575 0 0 1 .186-.252.543.543 0 0 1 .348-.114h.474a.57.57 0 0 1 .348.102.497.497 0 0 1 .192.264l1.692 5.19c.088.256.164.54.228.852.028-.156.056-.306.084-.45.032-.144.064-.278.096-.402l1.476-5.19c.028-.1.09-.186.186-.258a.563.563 0 0 1 .348-.108h1.266l-2.694 8.676h-1.458l-1.896-5.928-.078-.246a9.504 9.504 0 0 1-.072-.282c-.024.1-.05.194-.078.282-.024.088-.048.17-.072.246l-1.914 5.928H30.04l-2.694-8.676ZM42.771 8.661c.46 0 .876.074 1.248.222.376.148.696.358.96.63s.468.604.612.996c.144.392.216.83.216 1.314 0 .488-.072.928-.216 1.32a2.85 2.85 0 0 1-.612 1.002 2.653 2.653 0 0 1-.96.636 3.35 3.35 0 0 1-1.248.222c-.46 0-.878-.074-1.254-.222a2.712 2.712 0 0 1-.966-.636 2.922 2.922 0 0 1-.618-1.002 3.807 3.807 0 0 1-.216-1.32c0-.484.072-.922.216-1.314.148-.392.354-.724.618-.996.268-.272.59-.482.966-.63a3.397 3.397 0 0 1 1.254-.222Zm0 5.202c.512 0 .89-.172 1.134-.516.248-.344.372-.848.372-1.512s-.124-1.17-.372-1.518c-.244-.348-.622-.522-1.134-.522-.52 0-.904.176-1.152.528-.248.348-.372.852-.372 1.512s.124 1.164.372 1.512c.248.344.632.516 1.152.516ZM46.723 14.913V8.757h.87c.152 0 .258.028.318.084.06.056.1.152.12.288l.09.744c.22-.38.478-.68.774-.9.296-.22.628-.33.996-.33.304 0 .556.07.756.21l-.192 1.11c-.012.072-.038.124-.078.156a.278.278 0 0 1-.162.042 1.01 1.01 0 0 1-.246-.042 1.646 1.646 0 0 0-.414-.042c-.308 0-.572.086-.792.258-.22.168-.406.416-.558.744v3.834h-1.482ZM52.96 5.997v8.916h-1.482V5.997h1.482ZM58.732 14.913c-.192 0-.318-.09-.378-.27l-.12-.594a3.68 3.68 0 0 1-.402.39c-.14.116-.292.216-.456.3-.16.084-.334.148-.522.192a2.372 2.372 0 0 1-.6.072c-.336 0-.644-.07-.924-.21a2.098 2.098 0 0 1-.726-.606 3.033 3.033 0 0 1-.468-.99 5.072 5.072 0 0 1-.162-1.344c0-.456.062-.88.186-1.272s.302-.732.534-1.02c.232-.288.51-.512.834-.672a2.384 2.384 0 0 1 1.092-.246 2.103 2.103 0 0 1 1.536.606V5.997h1.482v8.916h-.906Zm-1.974-1.086c.308 0 .57-.064.786-.192.216-.128.42-.31.612-.546v-2.76a1.452 1.452 0 0 0-.552-.432 1.597 1.597 0 0 0-.636-.126c-.224 0-.428.042-.612.126a1.21 1.21 0 0 0-.462.384c-.124.168-.22.384-.288.648-.068.26-.102.568-.102.924 0 .36.028.666.084.918.06.248.144.452.252.612.108.156.24.27.396.342.156.068.33.102.522.102ZM16.331 20.757v6.156H14.85v-6.156h1.481Zm.223-1.794a.844.844 0 0 1-.078.36.963.963 0 0 1-.21.294.995.995 0 0 1-.3.204.963.963 0 0 1-.372.072.948.948 0 0 1-.367-.072 1.018 1.018 0 0 1-.498-.498.963.963 0 0 1 0-.732.995.995 0 0 1 .205-.3.929.929 0 0 1 .293-.198.899.899 0 0 1 .738 0 .912.912 0 0 1 .3.198.943.943 0 0 1 .288.672ZM17.771 26.913v-6.156h.906c.192 0 .318.09.378.27l.102.486a2.934 2.934 0 0 1 .828-.618c.156-.076.322-.134.498-.174.176-.04.368-.06.576-.06.336 0 .634.058.894.174.26.112.476.272.648.48.176.204.308.45.396.738.092.284.138.598.138.942v3.918h-1.482v-3.918c0-.376-.088-.666-.264-.87-.172-.208-.432-.312-.78-.312-.256 0-.496.058-.72.174a2.58 2.58 0 0 0-.636.474v4.452h-1.482ZM34.22 22.575c0 .636-.106 1.22-.318 1.752-.212.532-.51.99-.894 1.374a4 4 0 0 1-1.386.894 4.87 4.87 0 0 1-1.794.318h-3.312v-8.676h3.312a4.79 4.79 0 0 1 1.794.324 4 4 0 0 1 1.386.894c.384.38.682.836.894 1.368.212.532.318 1.116.318 1.752Zm-1.65 0c0-.476-.064-.902-.192-1.278a2.68 2.68 0 0 0-.546-.96 2.332 2.332 0 0 0-.864-.606 2.94 2.94 0 0 0-1.14-.21h-1.686v6.108h1.686c.424 0 .804-.07 1.14-.21.34-.14.628-.34.864-.6a2.75 2.75 0 0 0 .546-.96 4.01 4.01 0 0 0 .192-1.284ZM39.98 26.913h-.665c-.14 0-.25-.02-.33-.06-.08-.044-.14-.13-.18-.258l-.132-.438c-.156.14-.31.264-.462.372a2.804 2.804 0 0 1-.462.264c-.16.072-.33.126-.51.162-.18.036-.38.054-.6.054-.26 0-.5-.034-.72-.102a1.618 1.618 0 0 1-.57-.318 1.448 1.448 0 0 1-.366-.522 1.852 1.852 0 0 1-.132-.726c0-.232.06-.46.18-.684.124-.228.328-.432.612-.612.284-.184.662-.336 1.134-.456.472-.12 1.058-.188 1.758-.204v-.36c0-.412-.088-.716-.264-.912-.172-.2-.424-.3-.756-.3a1.837 1.837 0 0 0-1.02.276c-.116.068-.224.13-.324.186a.664.664 0 0 1-.33.084.429.429 0 0 1-.258-.078.614.614 0 0 1-.174-.192l-.27-.474c.708-.648 1.562-.972 2.562-.972.36 0 .68.06.96.18.284.116.524.28.72.492.196.208.344.458.444.75.104.292.156.612.156.96v3.888Zm-2.88-.924c.153 0 .293-.014.42-.042.129-.028.249-.07.36-.126.117-.056.227-.124.33-.204.109-.084.217-.182.325-.294v-1.038c-.432.02-.794.058-1.086.114-.288.052-.52.12-.696.204a.923.923 0 0 0-.378.294.664.664 0 0 0-.108.366c0 .26.076.446.228.558.156.112.358.168.606.168ZM43.22 27.01c-.532 0-.942-.15-1.23-.45-.288-.305-.432-.723-.432-1.255v-3.438h-.624a.31.31 0 0 1-.21-.078c-.056-.052-.084-.13-.084-.234v-.588l.99-.162.312-1.68a.302.302 0 0 1 .108-.186.365.365 0 0 1 .222-.066h.768v1.938h1.62v1.056h-1.62v3.336c0 .192.048.342.144.45a.488.488 0 0 0 .384.162c.092 0 .168-.01.228-.03.064-.024.118-.048.162-.072.048-.024.09-.046.126-.066a.194.194 0 0 1 .108-.036.16.16 0 0 1 .108.036c.028.02.058.052.09.096l.444.72c-.216.18-.464.316-.744.408a2.77 2.77 0 0 1-.87.138ZM50.423 26.913h-.666c-.14 0-.25-.02-.33-.06-.08-.044-.14-.13-.18-.258l-.132-.438c-.156.14-.31.264-.462.372a2.804 2.804 0 0 1-.462.264c-.16.072-.33.126-.51.162-.18.036-.38.054-.6.054-.26 0-.5-.034-.72-.102a1.618 1.618 0 0 1-.57-.318 1.448 1.448 0 0 1-.366-.522 1.852 1.852 0 0 1-.132-.726c0-.232.06-.46.18-.684.124-.228.328-.432.612-.612.284-.184.662-.336 1.134-.456.472-.12 1.058-.188 1.758-.204v-.36c0-.412-.088-.716-.264-.912-.172-.2-.424-.3-.756-.3a1.837 1.837 0 0 0-1.02.276c-.116.068-.224.13-.324.186a.664.664 0 0 1-.33.084.429.429 0 0 1-.258-.078.614.614 0 0 1-.174-.192l-.27-.474c.708-.648 1.562-.972 2.562-.972.36 0 .68.06.96.18.284.116.524.28.72.492.196.208.344.458.444.75.104.292.156.612.156.96v3.888Zm-2.88-.924c.152 0 .292-.014.42-.042.128-.028.248-.07.36-.126.116-.056.226-.124.33-.204.108-.084.216-.182.324-.294v-1.038c-.432.02-.794.058-1.086.114-.288.052-.52.12-.696.204a.923.923 0 0 0-.378.294.664.664 0 0 0-.108.366c0 .26.076.446.228.558.156.112.358.168.606.168Z"/></svg></g><a href="https://ourworldindata.org/grapher/temperature-anomaly" style="font-family:&#x27;Playfair Display&#x27;, Georgia, &#x27;Times New Roman&#x27;, &#x27;Liberation Serif&#x27;, serif" target="_blank" rel="noopener"><text font-size="24.00" font-weight="500" x="16.0" y="39.3" fill="#5b5b5b"><tspan x="16" y="39.28">Average temperature anomaly, Global</tspan></text></a><text x="16.0" y="63.0" style="font-size:14px;line-height:1.28571" fill="#5b5b5b"><tspan x="16" y="63.0">Global average land-sea temperature anomaly relative to the 1961-1990 average temperature.</tspan></text></g><g class="LineChart"><defs><clipPath id="boundsClip-3"><rect x="63.32599999999999" y="72.79993999999999" width="838" height="472.00006"></rect></clipPath></defs><rect x="16" y="82.79993999999999" width="818" height="452.00006" fill="none"></rect><g class="DualAxisView"><g class="HorizontalAxis"><line x1="73.3" y1="511.6" x2="73.3" y2="516.6" stroke="#999"></line><line x1="762.1" y1="511.6" x2="762.1" y2="516.6" stroke="#999"></line><line x1="192.8" y1="511.6" x2="192.8" y2="516.6" stroke="#999"></line><line x1="272.4" y1="511.6" x2="272.4" y2="516.6" stroke="#999"></line><line x1="352" y1="511.6" x2="352" y2="516.6" stroke="#999"></line><line x1="431.7" y1="511.6" x2="431.7" y2="516.6" stroke="#999"></line><line x1="511.3" y1="511.6" x2="511.3" y2="516.6" stroke="#999"></line><line x1="590.9" y1="511.6" x2="590.9" y2="516.6" stroke="#999"></line><line x1="670.6" y1="511.6" x2="670.6" y2="516.6" stroke="#999"></line><text x="73.326" y="532.8" fill="#666" text-anchor="start" font-size="16.2">1850</text><text x="762.145" y="532.8" fill="#666" text-anchor="end" font-size="16.2">2023</text><text x="192.8" y="532.8" fill="#666" text-anchor="middle" font-size="16.2">1880</text><text x="272.4" y="532.8" fill="#666" text-anchor="middle" font-size="16.2">1900</text><text x="352" y="532.8" fill="#666" text-anchor="middle" font-size="16.2">1920</text><text x="431.7" y="532.8" fill="#666" text-anchor="middle" font-size="16.2">1940</text><text x="511.3" y="532.8" fill="#666" text-anchor="middle" font-size="16.2">1960</text><text x="590.9" y="532.8" fill="#666" text-anchor="middle" font-size="16.2">1980</text><text x="670.6" y="532.8" fill="#666" text-anchor="middle" font-size="16.2">2000</text></g><g class="VerticalAxis"><text x="68.33" y="481.3" dy=".32em" text-anchor="end" fill="#666" font-size="16.2">-0.6 °C</text><text x="68.33" y="434.3" dy=".32em" text-anchor="end" fill="#666" font-size="16.2">-0.4 °C</text><text x="68.33" y="387.2" dy=".32em" text-anchor="end" fill="#666" font-size="16.2">-0.2 °C</text><text x="68.33" y="340.2" dy=".32em" text-anchor="end" fill="#666" font-size="16.2">0 °C</text><text x="68.33" y="293.1" dy=".32em" text-anchor="end" fill="#666" font-size="16.2">0.2 °C</text><text x="68.33" y="246.1" dy=".32em" text-anchor="end" fill="#666" font-size="16.2">0.4 °C</text><text x="68.33" y="199" dy=".32em" text-anchor="end" fill="#666" font-size="16.2">0.6 °C</text><text x="68.33" y="152" dy=".32em" text-anchor="end" fill="#666" font-size="16.2">0.8 °C</text><text x="68.33" y="105" dy=".32em" text-anchor="end" fill="#666" font-size="16.2">1 °C</text></g><g class="AxisGridLines horizontalLines"><line x1="73.33" y1="481.3" x2="762.14" y2="481.3" stroke="#ddd" stroke-dasharray="3,2"></line><line x1="73.33" y1="434.3" x2="762.14" y2="434.3" stroke="#ddd" stroke-dasharray="3,2"></line><line x1="73.33" y1="387.2" x2="762.14" y2="387.2" stroke="#ddd" stroke-dasharray="3,2"></line><line x1="73.33" y1="340.2" x2="762.14" y2="340.2" stroke="#999"></line><line x1="73.33" y1="293.1" x2="762.14" y2="293.1" stroke="#ddd" stroke-dasharray="3,2"></line><line x1="73.33" y1="246.1" x2="762.14" y2="246.1" stroke="#ddd" stroke-dasharray="3,2"></line><line x1="73.33" y1="199" x2="762.14" y2="199" stroke="#ddd" stroke-dasharray="3,2"></line><line x1="73.33" y1="152" x2="762.14" y2="152" stroke="#ddd" stroke-dasharray="3,2"></line><line x1="73.33" y1="105" x2="762.14" y2="105" stroke="#ddd" stroke-dasharray="3,2"></line></g></g><g clip-path="url(#boundsClip-3)"><g class="LineLabels" style="cursor:default"><g class="legendMark"><g class="indicator"><path d="M766.145,88.8 H786.395 V95.54993999999999 H793.145" stroke="#999" stroke-width="0.5" fill="none"></path></g><rect x="762.145" y="88.79993999999999" width="71.855" height="13.5" fill="#fff" opacity="0"></rect><text font-size="13.50" font-weight="400" x="797.1" y="100.5" fill="#a1a1a1"><tspan x="797.145" y="100.54494">Upper</tspan></text></g><g class="legendMark"><g class="indicator"><path d="M766.145,105.8 H779.645 V111.04993999999999 H793.145" stroke="#999" stroke-width="0.5" fill="none"></path></g><rect x="762.145" y="104.29993999999999" width="68.885" height="13.5" fill="#fff" opacity="0"></rect><text font-size="13.50" font-weight="400" x="797.1" y="116.0" fill="#ca2628"><tspan x="797.145" y="116.04494">Mean</tspan></text></g><g class="legendMark"><g class="indicator"><path d="M766.145,122.7 H772.895 V126.54993999999999 H793.145" stroke="#999" stroke-width="0.5" fill="none"></path></g><rect x="762.145" y="119.79993999999999" width="71.855" height="13.5" fill="#fff" opacity="0"></rect><text font-size="13.50" font-weight="400" x="797.1" y="131.5" fill="#a1a1a1"><tspan x="797.145" y="131.54494">Lower</tspan></text></g></g><g class="Lines"><rect x="73" y="89" width="689" height="423" fill="rgba(255,255,255,0)" opacity="0"></rect><g><path stroke-linecap="round" stroke-linejoin="round" stroke="#ddd" d="M73.3 478.8L77.3 437L81.3 436.5L85.3 441.3L89.3 442L93.2 443.5L97.2 450.3L101.2 485.1L105.2 466.5L109.2 439.9L113.1 466.9L117.1 480.6L121.1 505.7L125.1 465.8L129.1 492.6L133.1 463.6L137 462.9L141 470.3L145 464.8L149 452.2L153 450.4L156.9 461.1L160.9 449.1L164.9 451.3L168.9 459.5L172.9 461.1L176.8 472.6L180.8 394.2L184.8 371L188.8 442.3L192.8 443.7L196.8 424.4L200.7 439L204.7 448.6L208.7 481.9L212.7 477.3L216.7 463.1L220.6 485.2L224.6 456.2L228.6 427.7L232.6 488.9L236.6 466.6L240.6 491.7L244.5 488.7L248.5 487.3L252.5 477.1L256.5 438.3L260.5 433.9L264.4 485.4L268.4 454.6L272.4 426.5L276.4 441.2L280.4 475.5L284.4 495.6L288.3 511.6L292.3 466L296.3 446.1L300.3 487.5L304.3 490.1L308.2 493.7L312.2 494.4L316.2 495.9L320.2 478.8L324.2 478.8L328.1 430.2L332.1 415.9L336.1 471.6L340.1 503L344.1 477.1L348.1 453.4L352 445.7L356 430L360 449.8L364 444.6L368 443.4L371.9 437.7L375.9 399.6L379.9 422.8L383.9 419.9L387.9 464L391.9 408.5L395.8 390.2L399.8 399.4L403.8 440.6L407.8 404.6L411.8 411.6L415.7 402.2L419.7 368.3L423.7 366.1L427.7 374.7L431.7 350L435.7 378.3L439.6 386.1L443.6 387.1L447.6 353L451.6 377.2L455.6 402.7L459.5 394.7L463.5 401.1L467.5 399.9L471.5 418.4L475.5 375.5L479.5 359.7L483.4 345L487.4 389.2L491.4 407.1L495.4 419.9L499.4 363.8L503.3 359.7L507.3 366.1L511.3 381.1L515.3 356.8L519.3 367.8L523.2 361.5L527.2 422.4L531.2 399.8L535.2 386.8L539.2 378L543.2 390.3L547.1 357.1L551.1 369.8L555.1 397.7L559.1 371.2L563.1 337L567 389.6L571 375.8L575 400.4L579 326L583 348.3L587 325.5L590.9 301.9L594.9 288.6L598.9 341.4L602.9 295.9L606.9 337.5L610.8 336.5L614.8 325L618.8 290.3L622.8 282.1L626.8 306.2L630.8 263.8L634.7 268.7L638.7 318.8L642.7 310L646.7 293.5L650.7 259.3L654.6 283L658.6 248.4L662.6 212.4L666.6 271.3L670.6 270L674.5 232.4L678.5 219.6L682.5 219.9L686.5 238L690.5 204.8L694.5 212.7L698.4 208.1L702.4 238.4L706.4 207.2L710.4 187.5L714.4 221.2L718.3 212L722.3 201.8L726.3 189.9L730.3 154.1L734.3 128.1L738.3 148.5L742.2 168.2L746.2 138.6L750.2 131.3L754.2 169.5L758.2 160.2L762.1 122.7" fill="none" stroke-width="1"></path></g><g><path stroke-linecap="round" stroke-linejoin="round" stroke="#ddd" d="M73.3 398.1L77.3 353.1L81.3 351.8L85.3 366.2L89.3 375.6L93.2 376.5L97.2 380.8L101.2 415L105.2 396.8L109.2 372.8L113.1 396.9L117.1 401.6L121.1 427L125.1 376.5L129.1 406.7L133.1 373.2L137 378L141 378L145 381.2L149 377L153 384.2L156.9 392.6L160.9 385.6L164.9 389.6L168.9 396.5L172.9 396L176.8 407.3L180.8 333.7L184.8 314.6L188.8 380.9L192.8 385.2L196.8 365.2L200.7 380.4L204.7 394.8L208.7 430L212.7 424.7L216.7 415.3L220.6 429.8L224.6 402.6L228.6 370.2L232.6 429.9L236.6 402.6L240.6 427.4L244.5 424.3L248.5 420.6L252.5 414.4L256.5 375.6L260.5 368.7L264.4 423.4L268.4 393L272.4 364.2L276.4 377.1L280.4 411.3L284.4 435.6L288.3 449.8L292.3 406.1L296.3 384.3L300.3 430L304.3 432L308.2 438.7L312.2 435.8L316.2 438.1L320.2 425.3L324.2 421.3L328.1 373.7L332.1 354.7L336.1 406.4L340.1 432.8L344.1 403L348.1 380.1L352 375.1L356 363.6L360 390.1L364 385.3L368 383.8L371.9 375.5L375.9 338.5L379.9 365.4L383.9 357.7L387.9 401.1L391.9 355L395.8 338.8L399.8 349.3L403.8 391.4L407.8 357.7L411.8 365.7L415.7 357.9L419.7 321L423.7 320L427.7 324.9L431.7 294.6L435.7 284.1L439.6 293.6L443.6 290.2L447.6 259.6L451.6 282.9L455.6 333.5L459.5 328.6L463.5 337.9L467.5 348.1L471.5 368.5L475.5 333.6L479.5 313.4L483.4 298.8L487.4 346.1L491.4 366.1L495.4 384.2L499.4 333.1L503.3 328.9L507.3 336.8L511.3 353.5L515.3 332.9L519.3 342.7L523.2 336.2L527.2 401.9L531.2 376.7L535.2 363.5L539.2 357.7L543.2 369.3L547.1 338L551.1 350.6L555.1 379.5L559.1 353.3L563.1 319.9L567 371.9L571 356.7L575 381.5L579 305.8L583 329.6L587 312.1L590.9 286.2L594.9 274.2L598.9 322.9L602.9 279.1L606.9 320.3L610.8 320.5L614.8 310.3L618.8 275.8L622.8 265.5L626.8 289.8L630.8 246.9L634.7 252.3L638.7 302.8L642.7 292.4L646.7 277L650.7 243.7L654.6 267.2L658.6 233.3L662.6 196.3L666.6 256.4L670.6 254.6L674.5 217.7L678.5 205.1L682.5 204.4L686.5 222.5L690.5 190.1L694.5 198.3L698.4 193.9L702.4 222.9L706.4 192.4L710.4 172.8L714.4 206.2L718.3 196.6L722.3 185.2L726.3 173.9L730.3 138.1L734.3 113.4L738.3 134.2L742.2 153.4L746.2 122.5L750.2 115L754.2 152.4L758.2 143.2L762.1 88.8" fill="none" stroke-width="1"></path></g><g><path stroke-linecap="round" stroke-linejoin="round" stroke="#ddd" d="M73.3 438.4L77.3 395.1L81.3 394.1L85.3 403.8L89.3 408.8L93.2 410L97.2 415.5L101.2 450.1L105.2 431.6L109.2 406.3L113.1 431.9L117.1 441.1L121.1 466.3L125.1 421.2L129.1 449.6L133.1 418.4L137 420.4L141 424.1L145 423L149 414.6L153 417.3L156.9 426.9L160.9 417.3L164.9 420.5L168.9 428L172.9 428.5L176.8 439.9L180.8 364L184.8 342.8L188.8 411.6L192.8 414.5L196.8 394.8L200.7 409.7L204.7 421.7L208.7 456L212.7 451L216.7 439.2L220.6 457.5L224.6 429.4L228.6 399L232.6 459.4L236.6 434.6L240.6 459.6L244.5 456.5L248.5 454L252.5 445.7L256.5 407L260.5 401.3L264.4 454.4L268.4 423.8L272.4 395.3L276.4 409.2L280.4 443.4L284.4 465.6L288.3 480.7L292.3 436.1L296.3 415.2L300.3 458.8L304.3 461L308.2 466.2L312.2 465.1L316.2 467L320.2 452.1L324.2 450.1L328.1 401.9L332.1 385.3L336.1 439L340.1 467.9L344.1 440L348.1 416.7L352 410.4L356 396.8L360 420L364 415L368 413.6L371.9 406.6L375.9 369.1L379.9 394.1L383.9 388.8L387.9 432.6L391.9 381.8L395.8 364.5L399.8 374.4L403.8 416L407.8 381.2L411.8 388.6L415.7 380L419.7 344.7L423.7 343L427.7 349.8L431.7 322.3L435.7 331.2L439.6 339.8L443.6 338.7L447.6 306.3L451.6 330L455.6 368.1L459.5 361.6L463.5 369.5L467.5 374L471.5 393.5L475.5 354.6L479.5 336.6L483.4 321.9L487.4 367.6L491.4 386.6L495.4 402.1L499.4 348.5L503.3 344.3L507.3 351.5L511.3 367.3L515.3 344.9L519.3 355.2L523.2 348.8L527.2 412.1L531.2 388.2L535.2 375.2L539.2 367.8L543.2 379.8L547.1 347.6L551.1 360.2L555.1 388.6L559.1 362.2L563.1 328.4L567 380.8L571 366.2L575 390.9L579 315.9L583 338.9L587 318.8L590.9 294.1L594.9 281.4L598.9 332.1L602.9 287.5L606.9 328.9L610.8 328.5L614.8 317.7L618.8 283L622.8 273.8L626.8 298L630.8 255.4L634.7 260.5L638.7 310.8L642.7 301.2L646.7 285.2L650.7 251.5L654.6 275.1L658.6 240.8L662.6 204.4L666.6 263.9L670.6 262.3L674.5 225.1L678.5 212.3L682.5 212.2L686.5 230.2L690.5 197.4L694.5 205.5L698.4 201L702.4 230.6L706.4 199.8L710.4 180.1L714.4 213.7L718.3 204.3L722.3 193.5L726.3 181.9L730.3 146.1L734.3 120.7L738.3 141.4L742.2 160.8L746.2 130.6L750.2 123.1L754.2 161L758.2 151.7L762.1 105.8" fill="none" stroke-width="1"></path></g><g><path fill="none" stroke-linecap="butt" stroke-linejoin="round" stroke="#fff" stroke-width="2.5" d="M73.3 478.8L77.3 437L81.3 436.5L85.3 441.3L89.3 442L93.2 443.5L97.2 450.3L101.2 485.1L105.2 466.5L109.2 439.9L113.1 466.9L117.1 480.6L121.1 505.7L125.1 465.8L129.1 492.6L133.1 463.6L137 462.9L141 470.3L145 464.8L149 452.2L153 450.4L156.9 461.1L160.9 449.1L164.9 451.3L168.9 459.5L172.9 461.1L176.8 472.6L180.8 394.2L184.8 371L188.8 442.3L192.8 443.7L196.8 424.4L200.7 439L204.7 448.6L208.7 481.9L212.7 477.3L216.7 463.1L220.6 485.2L224.6 456.2L228.6 427.7L232.6 488.9L236.6 466.6L240.6 491.7L244.5 488.7L248.5 487.3L252.5 477.1L256.5 438.3L260.5 433.9L264.4 485.4L268.4 454.6L272.4 426.5L276.4 441.2L280.4 475.5L284.4 495.6L288.3 511.6L292.3 466L296.3 446.1L300.3 487.5L304.3 490.1L308.2 493.7L312.2 494.4L316.2 495.9L320.2 478.8L324.2 478.8L328.1 430.2L332.1 415.9L336.1 471.6L340.1 503L344.1 477.1L348.1 453.4L352 445.7L356 430L360 449.8L364 444.6L368 443.4L371.9 437.7L375.9 399.6L379.9 422.8L383.9 419.9L387.9 464L391.9 408.5L395.8 390.2L399.8 399.4L403.8 440.6L407.8 404.6L411.8 411.6L415.7 402.2L419.7 368.3L423.7 366.1L427.7 374.7L431.7 350L435.7 378.3L439.6 386.1L443.6 387.1L447.6 353L451.6 377.2L455.6 402.7L459.5 394.7L463.5 401.1L467.5 399.9L471.5 418.4L475.5 375.5L479.5 359.7L483.4 345L487.4 389.2L491.4 407.1L495.4 419.9L499.4 363.8L503.3 359.7L507.3 366.1L511.3 381.1L515.3 356.8L519.3 367.8L523.2 361.5L527.2 422.4L531.2 399.8L535.2 386.8L539.2 378L543.2 390.3L547.1 357.1L551.1 369.8L555.1 397.7L559.1 371.2L563.1 337L567 389.6L571 375.8L575 400.4L579 326L583 348.3L587 325.5L590.9 301.9L594.9 288.6L598.9 341.4L602.9 295.9L606.9 337.5L610.8 336.5L614.8 325L618.8 290.3L622.8 282.1L626.8 306.2L630.8 263.8L634.7 268.7L638.7 318.8L642.7 310L646.7 293.5L650.7 259.3L654.6 283L658.6 248.4L662.6 212.4L666.6 271.3L670.6 270L674.5 232.4L678.5 219.6L682.5 219.9L686.5 238L690.5 204.8L694.5 212.7L698.4 208.1L702.4 238.4L706.4 207.2L710.4 187.5L714.4 221.2L718.3 212L722.3 201.8L726.3 189.9L730.3 154.1L734.3 128.1L738.3 148.5L742.2 168.2L746.2 138.6L750.2 131.3L754.2 169.5L758.2 160.2L762.1 122.7"></path><polyline points="73.30,478.80 77.30,437.00 81.30,436.50 85.30,441.30 89.30,442.00 93.20,443.50 97.20,450.30 101.20,485.10 105.20,466.50 109.20,439.90 113.10,466.90 117.10,480.60 121.10,505.70 125.10,465.80 129.10,492.60 133.10,463.60 137.00,462.90 141.00,470.30 145.00,464.80 149.00,452.20 153.00,450.40 156.90,461.10 160.90,449.10 164.90,451.30 168.90,459.50 172.90,461.10 176.80,472.60 180.80,394.20 184.80,371.00 188.80,442.30 192.80,443.70 196.80,424.40 200.70,439.00 204.70,448.60 208.70,481.90 212.70,477.30 216.70,463.10 220.60,485.20 224.60,456.20 228.60,427.70 232.60,488.90 236.60,466.60 240.60,491.70 244.50,488.70 248.50,487.30 252.50,477.10 256.50,438.30 260.50,433.90 264.40,485.40 268.40,454.60 272.40,426.50 276.40,441.20 280.40,475.50 284.40,495.60 288.30,511.60 292.30,466.00 296.30,446.10 300.30,487.50 304.30,490.10 308.20,493.70 312.20,494.40 316.20,495.90 320.20,478.80 324.20,478.80 328.10,430.20 332.10,415.90 336.10,471.60 340.10,503.00 344.10,477.10 348.10,453.40 352.00,445.70 356.00,430.00 360.00,449.80 364.00,444.60 368.00,443.40 371.90,437.70 375.90,399.60 379.90,422.80 383.90,419.90 387.90,464.00 391.90,408.50 395.80,390.20 399.80,399.40 403.80,440.60 407.80,404.60 411.80,411.60 415.70,402.20 419.70,368.30 423.70,366.10 427.70,374.70 431.70,350.00 435.70,378.30 439.60,386.10 443.60,387.10 447.60,353.00 451.60,377.20 455.60,402.70 459.50,394.70 463.50,401.10 467.50,399.90 471.50,418.40 475.50,375.50 479.50,359.70 483.40,345.00 487.40,389.20 491.40,407.10 495.40,419.90 499.40,363.80 503.30,359.70 507.30,366.10 511.30,381.10 515.30,356.80 519.30,367.80 523.20,361.50 527.20,422.40 531.20,399.80 535.20,386.80 539.20,378.00 543.20,390.30 547.10,357.10 551.10,369.80 555.10,397.70 559.10,371.20 563.10,337.00 567.00,389.60 571.00,375.80 575.00,400.40 579.00,326.00 583.00,348.30 587.00,325.50 590.90,301.90 594.90,288.60 598.90,341.40 602.90,295.90 606.90,337.50 610.80,336.50 614.80,325.00 618.80,290.30 622.80,282.10 626.80,306.20 630.80,263.80 634.70,268.70 638.70,318.80 642.70,310.00 646.70,293.50 650.70,259.30 654.60,283.00 658.60,248.40 662.60,212.40 666.60,271.30 670.60,270.00 674.50,232.40 678.50,219.60 682.50,219.90 686.50,238.00 690.50,204.80 694.50,212.70 698.40,208.10 702.40,238.40 706.40,207.20 710.40,187.50 714.40,221.20 718.30,212.00 722.30,201.80 726.30,189.90 730.30,154.10 734.30,128.10 738.30,148.50 742.20,168.20 746.20,138.60 750.20,131.30 754.20,169.50 758.20,160.20 762.10,122.70" stroke-linejoin="round" stroke-width="1.5" stroke="#c8c8c8" fill="none" stroke-linecap="butt"></polyline></g><g><path fill="none" stroke-linecap="butt" stroke-linejoin="round" stroke="#fff" stroke-width="2.5" d="M73.3 398.1L77.3 353.1L81.3 351.8L85.3 366.2L89.3 375.6L93.2 376.5L97.2 380.8L101.2 415L105.2 396.8L109.2 372.8L113.1 396.9L117.1 401.6L121.1 427L125.1 376.5L129.1 406.7L133.1 373.2L137 378L141 378L145 381.2L149 377L153 384.2L156.9 392.6L160.9 385.6L164.9 389.6L168.9 396.5L172.9 396L176.8 407.3L180.8 333.7L184.8 314.6L188.8 380.9L192.8 385.2L196.8 365.2L200.7 380.4L204.7 394.8L208.7 430L212.7 424.7L216.7 415.3L220.6 429.8L224.6 402.6L228.6 370.2L232.6 429.9L236.6 402.6L240.6 427.4L244.5 424.3L248.5 420.6L252.5 414.4L256.5 375.6L260.5 368.7L264.4 423.4L268.4 393L272.4 364.2L276.4 377.1L280.4 411.3L284.4 435.6L288.3 449.8L292.3 406.1L296.3 384.3L300.3 430L304.3 432L308.2 438.7L312.2 435.8L316.2 438.1L320.2 425.3L324.2 421.3L328.1 373.7L332.1 354.7L336.1 406.4L340.1 432.8L344.1 403L348.1 380.1L352 375.1L356 363.6L360 390.1L364 385.3L368 383.8L371.9 375.5L375.9 338.5L379.9 365.4L383.9 357.7L387.9 401.1L391.9 355L395.8 338.8L399.8 349.3L403.8 391.4L407.8 357.7L411.8 365.7L415.7 357.9L419.7 321L423.7 320L427.7 324.9L431.7 294.6L435.7 284.1L439.6 293.6L443.6 290.2L447.6 259.6L451.6 282.9L455.6 333.5L459.5 328.6L463.5 337.9L467.5 348.1L471.5 368.5L475.5 333.6L479.5 313.4L483.4 298.8L487.4 346.1L491.4 366.1L495.4 384.2L499.4 333.1L503.3 328.9L507.3 336.8L511.3 353.5L515.3 332.9L519.3 342.7L523.2 336.2L527.2 401.9L531.2 376.7L535.2 363.5L539.2 357.7L543.2 369.3L547.1 338L551.1 350.6L555.1 379.5L559.1 353.3L563.1 319.9L567 371.9L571 356.7L575 381.5L579 305.8L583 329.6L587 312.1L590.9 286.2L594.9 274.2L598.9 322.9L602.9 279.1L606.9 320.3L610.8 320.5L614.8 310.3L618.8 275.8L622.8 265.5L626.8 289.8L630.8 246.9L634.7 252.3L638.7 302.8L642.7 292.4L646.7 277L650.7 243.7L654.6 267.2L658.6 233.3L662.6 196.3L666.6 256.4L670.6 254.6L674.5 217.7L678.5 205.1L682.5 204.4L686.5 222.5L690.5 190.1L694.5 198.3L698.4 193.9L702.4 222.9L706.4 192.4L710.4 172.8L714.4 206.2L718.3 196.6L722.3 185.2L726.3 173.9L730.3 138.1L734.3 113.4L738.3 134.2L742.2 153.4L746.2 122.5L750.2 115L754.2 152.4L758.2 143.2L762.1 88.8"></path><polyline points="73.30,398.10 77.30,353.10 81.30,351.80 85.30,366.20 89.30,375.60 93.20,376.50 97.20,380.80 101.20,415.00 105.20,396.80 109.20,372.80 113.10,396.90 117.10,401.60 121.10,427.00 125.10,376.50 129.10,406.70 133.10,373.20 137.00,378.00 141.00,378.00 145.00,381.20 149.00,377.00 153.00,384.20 156.90,392.60 160.90,385.60 164.90,389.60 168.90,396.50 172.90,396.00 176.80,407.30 180.80,333.70 184.80,314.60 188.80,380.90 192.80,385.20 196.80,365.20 200.70,380.40 204.70,394.80 208.70,430.00 212.70,424.70 216.70,415.30 220.60,429.80 224.60,402.60 228.60,370.20 232.60,429.90 236.60,402.60 240.60,427.40 244.50,424.30 248.50,420.60 252.50,414.40 256.50,375.60 260.50,368.70 264.40,423.40 268.40,393.00 272.40,364.20 276.40,377.10 280.40,411.30 284.40,435.60 288.30,449.80 292.30,406.10 296.30,384.30 300.30,430.00 304.30,432.00 308.20,438.70 312.20,435.80 316.20,438.10 320.20,425.30 324.20,421.30 328.10,373.70 332.10,354.70 336.10,406.40 340.10,432.80 344.10,403.00 348.10,380.10 352.00,375.10 356.00,363.60 360.00,390.10 364.00,385.30 368.00,383.80 371.90,375.50 375.90,338.50 379.90,365.40 383.90,357.70 387.90,401.10 391.90,355.00 395.80,338.80 399.80,349.30 403.80,391.40 407.80,357.70 411.80,365.70 415.70,357.90 419.70,321.00 423.70,320.00 427.70,324.90 431.70,294.60 435.70,284.10 439.60,293.60 443.60,290.20 447.60,259.60 451.60,282.90 455.60,333.50 459.50,328.60 463.50,337.90 467.50,348.10 471.50,368.50 475.50,333.60 479.50,313.40 483.40,298.80 487.40,346.10 491.40,366.10 495.40,384.20 499.40,333.10 503.30,328.90 507.30,336.80 511.30,353.50 515.30,332.90 519.30,342.70 523.20,336.20 527.20,401.90 531.20,376.70 535.20,363.50 539.20,357.70 543.20,369.30 547.10,338.00 551.10,350.60 555.10,379.50 559.10,353.30 563.10,319.90 567.00,371.90 571.00,356.70 575.00,381.50 579.00,305.80 583.00,329.60 587.00,312.10 590.90,286.20 594.90,274.20 598.90,322.90 602.90,279.10 606.90,320.30 610.80,320.50 614.80,310.30 618.80,275.80 622.80,265.50 626.80,289.80 630.80,246.90 634.70,252.30 638.70,302.80 642.70,292.40 646.70,277.00 650.70,243.70 654.60,267.20 658.60,233.30 662.60,196.30 666.60,256.40 670.60,254.60 674.50,217.70 678.50,205.10 682.50,204.40 686.50,222.50 690.50,190.10 694.50,198.30 698.40,193.90 702.40,222.90 706.40,192.40 710.40,172.80 714.40,206.20 718.30,196.60 722.30,185.20 726.30,173.90 730.30,138.10 734.30,113.40 738.30,134.20 742.20,153.40 746.20,122.50 750.20,115.00 754.20,152.40 758.20,143.20 762.10,88.80" stroke-linejoin="round" stroke-width="1.5" stroke="#c8c8c8" fill="none" stroke-linecap="butt"></polyline></g><g><path fill="none" stroke-linecap="butt" stroke-linejoin="round" stroke="#fff" stroke-width="2.5" d="M73.3 438.4L77.3 395.1L81.3 394.1L85.3 403.8L89.3 408.8L93.2 410L97.2 415.5L101.2 450.1L105.2 431.6L109.2 406.3L113.1 431.9L117.1 441.1L121.1 466.3L125.1 421.2L129.1 449.6L133.1 418.4L137 420.4L141 424.1L145 423L149 414.6L153 417.3L156.9 426.9L160.9 417.3L164.9 420.5L168.9 428L172.9 428.5L176.8 439.9L180.8 364L184.8 342.8L188.8 411.6L192.8 414.5L196.8 394.8L200.7 409.7L204.7 421.7L208.7 456L212.7 451L216.7 439.2L220.6 457.5L224.6 429.4L228.6 399L232.6 459.4L236.6 434.6L240.6 459.6L244.5 456.5L248.5 454L252.5 445.7L256.5 407L260.5 401.3L264.4 454.4L268.4 423.8L272.4 395.3L276.4 409.2L280.4 443.4L284.4 465.6L288.3 480.7L292.3 436.1L296.3 415.2L300.3 458.8L304.3 461L308.2 466.2L312.2 465.1L316.2 467L320.2 452.1L324.2 450.1L328.1 401.9L332.1 385.3L336.1 439L340.1 467.9L344.1 440L348.1 416.7L352 410.4L356 396.8L360 420L364 415L368 413.6L371.9 406.6L375.9 369.1L379.9 394.1L383.9 388.8L387.9 432.6L391.9 381.8L395.8 364.5L399.8 374.4L403.8 416L407.8 381.2L411.8 388.6L415.7 380L419.7 344.7L423.7 343L427.7 349.8L431.7 322.3L435.7 331.2L439.6 339.8L443.6 338.7L447.6 306.3L451.6 330L455.6 368.1L459.5 361.6L463.5 369.5L467.5 374L471.5 393.5L475.5 354.6L479.5 336.6L483.4 321.9L487.4 367.6L491.4 386.6L495.4 402.1L499.4 348.5L503.3 344.3L507.3 351.5L511.3 367.3L515.3 344.9L519.3 355.2L523.2 348.8L527.2 412.1L531.2 388.2L535.2 375.2L539.2 367.8L543.2 379.8L547.1 347.6L551.1 360.2L555.1 388.6L559.1 362.2L563.1 328.4L567 380.8L571 366.2L575 390.9L579 315.9L583 338.9L587 318.8L590.9 294.1L594.9 281.4L598.9 332.1L602.9 287.5L606.9 328.9L610.8 328.5L614.8 317.7L618.8 283L622.8 273.8L626.8 298L630.8 255.4L634.7 260.5L638.7 310.8L642.7 301.2L646.7 285.2L650.7 251.5L654.6 275.1L658.6 240.8L662.6 204.4L666.6 263.9L670.6 262.3L674.5 225.1L678.5 212.3L682.5 212.2L686.5 230.2L690.5 197.4L694.5 205.5L698.4 201L702.4 230.6L706.4 199.8L710.4 180.1L714.4 213.7L718.3 204.3L722.3 193.5L726.3 181.9L730.3 146.1L734.3 120.7L738.3 141.4L742.2 160.8L746.2 130.6L750.2 123.1L754.2 161L758.2 151.7L762.1 105.8"></path><polyline points="73.30,438.40 77.30,395.10 81.30,394.10 85.30,403.80 89.30,408.80 93.20,410.00 97.20,415.50 101.20,450.10 105.20,431.60 109.20,406.30 113.10,431.90 117.10,441.10 121.10,466.30 125.10,421.20 129.10,449.60 133.10,418.40 137.00,420.40 141.00,424.10 145.00,423.00 149.00,414.60 153.00,417.30 156.90,426.90 160.90,417.30 164.90,420.50 168.90,428.00 172.90,428.50 176.80,439.90 180.80,364.00 184.80,342.80 188.80,411.60 192.80,414.50 196.80,394.80 200.70,409.70 204.70,421.70 208.70,456.00 212.70,451.00 216.70,439.20 220.60,457.50 224.60,429.40 228.60,399.00 232.60,459.40 236.60,434.60 240.60,459.60 244.50,456.50 248.50,454.00 252.50,445.70 256.50,407.00 260.50,401.30 264.40,454.40 268.40,423.80 272.40,395.30 276.40,409.20 280.40,443.40 284.40,465.60 288.30,480.70 292.30,436.10 296.30,415.20 300.30,458.80 304.30,461.00 308.20,466.20 312.20,465.10 316.20,467.00 320.20,452.10 324.20,450.10 328.10,401.90 332.10,385.30 336.10,439.00 340.10,467.90 344.10,440.00 348.10,416.70 352.00,410.40 356.00,396.80 360.00,420.00 364.00,415.00 368.00,413.60 371.90,406.60 375.90,369.10 379.90,394.10 383.90,388.80 387.90,432.60 391.90,381.80 395.80,364.50 399.80,374.40 403.80,416.00 407.80,381.20 411.80,388.60 415.70,380.00 419.70,344.70 423.70,343.00 427.70,349.80 431.70,322.30 435.70,331.20 439.60,339.80 443.60,338.70 447.60,306.30 451.60,330.00 455.60,368.10 459.50,361.60 463.50,369.50 467.50,374.00 471.50,393.50 475.50,354.60 479.50,336.60 483.40,321.90 487.40,367.60 491.40,386.60 495.40,402.10 499.40,348.50 503.30,344.30 507.30,351.50 511.30,367.30 515.30,344.90 519.30,355.20 523.20,348.80 527.20,412.10 531.20,388.20 535.20,375.20 539.20,367.80 543.20,379.80 547.10,347.60 551.10,360.20 555.10,388.60 559.10,362.20 563.10,328.40 567.00,380.80 571.00,366.20 575.00,390.90 579.00,315.90 583.00,338.90 587.00,318.80 590.90,294.10 594.90,281.40 598.90,332.10 602.90,287.50 606.90,328.90 610.80,328.50 614.80,317.70 618.80,283.00 622.80,273.80 626.80,298.00 630.80,255.40 634.70,260.50 638.70,310.80 642.70,301.20 646.70,285.20 650.70,251.50 654.60,275.10 658.60,240.80 662.60,204.40 666.60,263.90 670.60,262.30 674.50,225.10 678.50,212.30 682.50,212.20 686.50,230.20 690.50,197.40 694.50,205.50 698.40,201.00 702.40,230.60 706.40,199.80 710.40,180.10 714.40,213.70 718.30,204.30 722.30,193.50 726.30,181.90 730.30,146.10 734.30,120.70 738.30,141.40 742.20,160.80 746.20,130.60 750.20,123.10 754.20,161.00 758.20,151.70 762.10,105.80" stroke-linejoin="round" stroke-width="1.5" stroke="#ca2628" fill="none" stroke-linecap="butt"></polyline></g></g></g></g><g class="SourcesFooter" style="fill:#5b5b5b"><text x="16.0" y="563.4" style="font-size:13px;line-height:1.2"><tspan x="16" y="563.4"><tspan style="font-weight:700">Data source:</tspan> Met Office Hadley Centre (2023)</tspan></text><text x="16.0" y="581.0" style="font-size:13px;line-height:1.2"><tspan x="16" y="581.0"><tspan style="font-weight:700">Note:</tspan> The gray lines represent the upper and lower bounds of the 95% confidence intervals.</tspan></text><text font-size="13.00" x="455.3" y="563.4"><tspan x="455.31" y="563.41"><a target="_blank" style="fill: #5b5b5b; text-decoration: underline;" href="https://ourworldindata.org/co2-and-greenhouse-gas-emissions">OurWorldInData.org/co2-and-greenhouse-gas-emissions</a> | <a target="_blank" style="fill: #5b5b5b; text-decoration: underline;" href="https://creativecommons.org/licenses/by/4.0/">CC BY</a></tspan></text></g></svg>